<svg width="26" height="22" viewBox="0 0 26 22" fill="none" xmlns="http://www.w3.org/2000/svg">
<path fill-rule="evenodd" clip-rule="evenodd" d="M12.9679 20.7629C9.1891 20.7629 5.96094 20.1912 5.96094 17.9022C5.96094 15.6132 9.1681 13.6205 12.9679 13.6205C16.7468 13.6205 19.9749 15.5945 19.9749 17.8824C19.9749 20.1702 16.7678 20.7629 12.9679 20.7629Z" stroke="#111111" stroke-width="2" stroke-linecap="round" stroke-linejoin="round"/>
<path fill-rule="evenodd" clip-rule="evenodd" d="M12.9682 10.3568C15.4486 10.3568 17.4599 8.34663 17.4599 5.8663C17.4599 3.38597 15.4486 1.37463 12.9682 1.37463C10.4879 1.37463 8.47658 3.38597 8.47658 5.8663C8.46958 8.3373 10.4646 10.3486 12.9367 10.3568H12.9682Z" stroke="#111111" stroke-width="2" stroke-linecap="round" stroke-linejoin="round"/>
<path d="M20.4222 9.12354C21.8654 8.73737 22.9294 7.42137 22.9294 5.85454C22.9294 4.22004 21.7709 2.85504 20.2285 2.54004" stroke="#111111" stroke-width="2" stroke-linecap="round" stroke-linejoin="round"/>
<path d="M21.0996 12.8018C23.1459 12.8018 24.8936 14.1889 24.8936 15.4279C24.8936 16.1571 24.2904 16.9516 23.3758 17.1663" stroke="#111111" stroke-width="2" stroke-linecap="round" stroke-linejoin="round"/>
<path d="M5.51419 9.12354C4.06986 8.73737 3.00586 7.42137 3.00586 5.85454C3.00586 4.22004 4.16553 2.85504 5.70669 2.54004" stroke="#111111" stroke-width="2" stroke-linecap="round" stroke-linejoin="round"/>
<path d="M4.83502 12.8018C2.78868 12.8018 1.04102 14.1889 1.04102 15.4279C1.04102 16.1571 1.64418 16.9516 2.56002 17.1663" stroke="#111111" stroke-width="2" stroke-linecap="round" stroke-linejoin="round"/>
</svg>
