<svg width="23" height="23" class="category" viewBox="0 0 23 23" fill="none" xmlns="http://www.w3.org/2000/svg">
<path fill-rule="evenodd" clip-rule="evenodd" d="M21.498 5.85303C21.498 8.06175 19.7068 9.85303 17.498 9.85303C15.2893 9.85303 13.499 8.06175 13.499 5.85303C13.499 3.64431 15.2893 1.85303 17.498 1.85303C19.7068 1.85303 21.498 3.64431 21.498 5.85303Z" stroke="#111111" stroke-width="2" stroke-linecap="round" stroke-linejoin="round"/>
<path fill-rule="evenodd" clip-rule="evenodd" d="M9.49902 5.85303C9.49902 8.06175 7.70872 9.85303 5.49902 9.85303C3.29128 9.85303 1.5 8.06175 1.5 5.85303C1.5 3.64431 3.29128 1.85303 5.49902 1.85303C7.70872 1.85303 9.49902 3.64431 9.49902 5.85303Z" stroke="#111111" stroke-width="2" stroke-linecap="round" stroke-linejoin="round"/>
<path fill-rule="evenodd" clip-rule="evenodd" d="M21.5 17.8535C21.5 20.0625 19.7085 21.853 17.4995 21.853C15.2905 21.853 13.5 20.0625 13.5 17.8535C13.5 15.6445 15.2905 13.853 17.4995 13.853C19.7085 13.853 21.5 15.6445 21.5 17.8535Z" stroke="#111111" stroke-width="2" stroke-linecap="round" stroke-linejoin="round"/>
<path fill-rule="evenodd" clip-rule="evenodd" d="M9.5 17.8535C9.5 20.0625 7.70948 21.853 5.49951 21.853C3.2915 21.853 1.5 20.0625 1.5 17.8535C1.5 15.6445 3.2915 13.853 5.49951 13.853C7.70948 13.853 9.5 15.6445 9.5 17.8535Z" stroke="#111111" stroke-width="2" stroke-linecap="round" stroke-linejoin="round"/>
</svg>
