<svg width="28" height="28" viewBox="0 0 28 28" fill="none" xmlns="http://www.w3.org/2000/svg">
<g opacity="0.36">
<path fill-rule="evenodd" clip-rule="evenodd" d="M23.498 7.85303C23.498 10.0617 21.7068 11.853 19.498 11.853C17.2893 11.853 15.499 10.0617 15.499 7.85303C15.499 5.64431 17.2893 3.85303 19.498 3.85303C21.7068 3.85303 23.498 5.64431 23.498 7.85303Z" stroke="#111111" stroke-width="2" stroke-linecap="round" stroke-linejoin="round"/>
<path fill-rule="evenodd" clip-rule="evenodd" d="M11.499 7.85303C11.499 10.0617 9.70872 11.853 7.49902 11.853C5.29128 11.853 3.5 10.0617 3.5 7.85303C3.5 5.64431 5.29128 3.85303 7.49902 3.85303C9.70872 3.85303 11.499 5.64431 11.499 7.85303Z" stroke="#111111" stroke-width="2" stroke-linecap="round" stroke-linejoin="round"/>
<path fill-rule="evenodd" clip-rule="evenodd" d="M23.5 19.8535C23.5 22.0625 21.7085 23.853 19.4995 23.853C17.2905 23.853 15.5 22.0625 15.5 19.8535C15.5 17.6445 17.2905 15.853 19.4995 15.853C21.7085 15.853 23.5 17.6445 23.5 19.8535Z" stroke="#111111" stroke-width="2" stroke-linecap="round" stroke-linejoin="round"/>
<path fill-rule="evenodd" clip-rule="evenodd" d="M11.5 19.8535C11.5 22.0625 9.70948 23.853 7.49951 23.853C5.2915 23.853 3.5 22.0625 3.5 19.8535C3.5 17.6445 5.2915 15.853 7.49951 15.853C9.70948 15.853 11.5 17.6445 11.5 19.8535Z" stroke="#111111" stroke-width="2" stroke-linecap="round" stroke-linejoin="round"/>
</g>
</svg>
