<svg width="28" height="28" viewBox="0 0 28 28" fill="none" xmlns="http://www.w3.org/2000/svg">
<path fill-rule="evenodd" clip-rule="evenodd" d="M13.9679 23.7629C10.1891 23.7629 6.96094 23.1912 6.96094 20.9022C6.96094 18.6132 10.1681 16.6206 13.9679 16.6206C17.7468 16.6206 20.9749 18.5946 20.9749 20.8824C20.9749 23.1702 17.7678 23.7629 13.9679 23.7629Z" stroke="#2F80ED" stroke-width="2" stroke-linecap="round" stroke-linejoin="round"/>
<path fill-rule="evenodd" clip-rule="evenodd" d="M13.9682 13.3568C16.4486 13.3568 18.4599 11.3467 18.4599 8.86633C18.4599 6.386 16.4486 4.37466 13.9682 4.37466C11.4879 4.37466 9.47658 6.386 9.47658 8.86633C9.46958 11.3373 11.4646 13.3487 13.9367 13.3568H13.9682Z" stroke="#2F80ED" stroke-width="2" stroke-linecap="round" stroke-linejoin="round"/>
<path d="M21.4227 12.1235C22.8658 11.7374 23.9298 10.4214 23.9298 8.85454C23.9298 7.22004 22.7713 5.85504 21.229 5.54004" stroke="#2F80ED" stroke-width="2" stroke-linecap="round" stroke-linejoin="round"/>
<path d="M22.1006 15.8018C24.1469 15.8018 25.8946 17.189 25.8946 18.428C25.8946 19.1572 25.2914 19.9517 24.3768 20.1663" stroke="#2F80ED" stroke-width="2" stroke-linecap="round" stroke-linejoin="round"/>
<path d="M6.51468 12.1235C5.07035 11.7374 4.00635 10.4214 4.00635 8.85454C4.00635 7.22004 5.16601 5.85504 6.70718 5.54004" stroke="#2F80ED" stroke-width="2" stroke-linecap="round" stroke-linejoin="round"/>
<path d="M5.8355 15.8018C3.78917 15.8018 2.0415 17.189 2.0415 18.428C2.0415 19.1572 2.64467 19.9517 3.5605 20.1663" stroke="#2F80ED" stroke-width="2" stroke-linecap="round" stroke-linejoin="round"/>
</svg>
