<svg width="48" height="48" viewBox="0 0 48 48" fill="none" xmlns="http://www.w3.org/2000/svg">
<circle opacity="0.12" cx="24" cy="24" r="24" fill="#2F80ED"/>
<path fill-rule="evenodd" clip-rule="evenodd" d="M23.9679 33.7629C20.1891 33.7629 16.9609 33.1912 16.9609 30.9022C16.9609 28.6132 20.1681 26.6206 23.9679 26.6206C27.7468 26.6206 30.9749 28.5946 30.9749 30.8824C30.9749 33.1702 27.7678 33.7629 23.9679 33.7629Z" stroke="#2F80ED" stroke-width="2" stroke-linecap="round" stroke-linejoin="round"/>
<path fill-rule="evenodd" clip-rule="evenodd" d="M23.9682 23.3568C26.4486 23.3568 28.4599 21.3467 28.4599 18.8663C28.4599 16.386 26.4486 14.3747 23.9682 14.3747C21.4879 14.3747 19.4766 16.386 19.4766 18.8663C19.4696 21.3373 21.4646 23.3487 23.9367 23.3568H23.9682Z" stroke="#2F80ED" stroke-width="2" stroke-linecap="round" stroke-linejoin="round"/>
<path d="M31.4227 22.1235C32.8658 21.7374 33.9298 20.4214 33.9298 18.8545C33.9298 17.22 32.7713 15.855 31.229 15.54" stroke="#2F80ED" stroke-width="2" stroke-linecap="round" stroke-linejoin="round"/>
<path d="M32.1006 25.8018C34.1469 25.8018 35.8946 27.189 35.8946 28.428C35.8946 29.1572 35.2914 29.9517 34.3768 30.1663" stroke="#2F80ED" stroke-width="2" stroke-linecap="round" stroke-linejoin="round"/>
<path d="M16.5147 22.1235C15.0703 21.7374 14.0063 20.4214 14.0063 18.8545C14.0063 17.22 15.166 15.855 16.7072 15.54" stroke="#2F80ED" stroke-width="2" stroke-linecap="round" stroke-linejoin="round"/>
<path d="M15.8355 25.8018C13.7892 25.8018 12.0415 27.189 12.0415 28.428C12.0415 29.1572 12.6447 29.9517 13.5605 30.1663" stroke="#2F80ED" stroke-width="2" stroke-linecap="round" stroke-linejoin="round"/>
</svg>
